<svg width="24" height="24" viewBox="0 0 24 24" fill="none" xmlns="http://www.w3.org/2000/svg">
<path d="M8.67975 6.53815C6.94837 6.53815 5.53799 7.94853 5.53799 9.6799C5.53799 11.4149 6.94837 12.8217 8.67975 12.8217C10.4111 12.8217 11.8215 11.4149 11.8215 9.6799C11.8215 7.94853 10.4111 6.53815 8.67975 6.53815ZM8.70422 9.31678C9.74445 9.59604 9.87706 10.2314 9.88408 10.4932C9.90154 10.9854 9.55947 11.4532 9.05673 11.6311C9.02884 11.6416 8.99736 11.6452 8.96946 11.6556V12.1235H8.27129V11.6452C7.92922 11.5478 7.58015 11.3 7.28341 10.8319L7.86281 10.4095C8.25724 11.0382 8.67615 10.9751 8.84024 10.9157C9.03925 10.8459 9.19275 10.6714 9.1859 10.5213C9.18247 10.3746 9.00793 10.1722 8.53668 10.0466C7.49645 9.76391 7.36384 9.12853 7.35682 8.87049C7.33936 8.37443 7.68143 7.90662 8.18417 7.72865C8.21206 7.72163 8.24354 7.71462 8.27144 7.70776L8.27128 7.23636H8.96945V7.71806C9.30809 7.81935 9.6606 8.06013 9.95734 8.5314L9.37794 8.9503C8.9835 8.32195 8.56459 8.38834 8.4005 8.44411C8.20149 8.51393 8.04799 8.68847 8.05485 8.84244C8.05843 8.98878 8.23297 9.18778 8.70422 9.31684L8.70422 9.31678Z" fill="#272525"/>
<path d="M13.3679 14.368C13.7727 13.9666 14.1218 13.5127 14.4081 13.0206L15.4588 13.3033L15.5844 13.0454C16.0174 12.1513 16.2723 11.2018 16.3421 10.2209L16.3595 9.93121L15.3053 9.64852C15.3018 8.49997 15.0015 7.38291 14.436 6.39159L15.204 5.6236L15.0434 5.38626C14.7782 4.98483 14.464 4.60423 14.1079 4.24832C13.7554 3.89581 13.3714 3.58163 12.9734 3.3125L12.7361 3.15541L11.9681 3.92307C10.9802 3.358 9.85952 3.0577 8.71113 3.05427L8.42828 2L8.142 2.02088C7.16114 2.08369 6.208 2.33817 5.31442 2.77111L5.05604 2.89672L5.33873 3.9474C4.84658 4.23711 4.39277 4.58621 3.98775 4.99123C3.5829 5.39237 3.23381 5.8465 2.94752 6.33861L1.897 6.05638L1.77139 6.31477C1.33845 7.20834 1.08368 8.16148 1.02088 9.14235L1 9.42863L2.05427 9.71133C2.0577 10.8599 2.35442 11.9769 2.92355 12.9683L2.15557 13.7362L2.31266 13.9736C2.5779 14.3719 2.89565 14.7556 3.24816 15.112C3.60426 15.4645 3.98467 15.7784 4.3861 16.0441L4.62344 16.2046L5.39143 15.4366C6.37931 16.0022 7.49997 16.302 8.64836 16.3059L8.93106 17.3602L9.22076 17.3422C10.2016 17.2724 11.1548 17.0176 12.0449 16.5847L12.3033 16.4591L12.0206 15.4084C12.5126 15.1221 12.9664 14.773 13.3679 14.368L13.3679 14.368ZM8.66221 14.2005C6.15583 14.2005 4.12412 12.1688 4.12412 9.66238C4.12412 7.15599 6.15583 5.12428 8.66221 5.12428C11.1686 5.12428 13.2003 7.15599 13.2003 9.66238C13.2003 12.1688 11.1686 14.2005 8.66221 14.2005Z" fill="#272525"/>
<path d="M21.8856 18.0404C21.8856 17.7192 21.8472 17.398 21.7738 17.0874L22.3498 16.7523L22.2556 16.4804C22.0565 15.901 21.7494 15.37 21.3479 14.9056L21.1595 14.6891L20.5765 15.0242C20.1087 14.5805 19.5468 14.2562 18.9324 14.0712V13.4079L18.6497 13.3522C18.0667 13.2334 17.4105 13.2334 16.8275 13.3522L16.5448 13.4079V14.0709C15.9305 14.2559 15.3683 14.5805 14.9006 15.0239L14.3212 14.6888L14.1327 14.905C13.7278 15.3658 13.4205 15.8967 13.2216 16.4798L13.1239 16.7517L13.7033 17.0868C13.6301 17.3978 13.5916 17.719 13.5916 18.0397C13.5916 18.3606 13.6299 18.6821 13.7033 18.9927L13.1239 19.3278L13.2216 19.5997C13.4206 20.1827 13.7278 20.7133 14.1327 21.1745L14.3212 21.3906L14.9006 21.0556C15.3685 21.4993 15.9304 21.8236 16.5448 22.0086V22.6715L16.8275 22.7273C17.1172 22.7879 17.4243 22.8194 17.7385 22.8194C18.0527 22.8194 18.3598 22.7876 18.6496 22.7282L18.9322 22.6724L18.9324 22.0095C19.5467 21.8245 20.1088 21.4999 20.5765 21.0565L21.1595 21.3916L21.3481 21.1754C21.7495 20.7112 22.0567 20.1802 22.2557 19.6006L22.35 19.3287L21.774 18.9936C21.8472 18.6827 21.8856 18.3615 21.8856 18.0403L21.8856 18.0404ZM17.7385 20.4839C16.3911 20.4839 15.2949 19.3877 15.2949 18.0404C15.2949 16.693 16.3911 15.5968 17.7385 15.5968C19.0858 15.5968 20.182 16.693 20.182 18.0404C20.182 19.3877 19.0858 20.4839 17.7385 20.4839Z" fill="#272525"/>
<path d="M19.4839 10.7096V11.0587H20.182V10.7096C20.182 9.74621 20.9641 8.96418 21.9275 8.96418H22.2765V8.26601H21.9275C20.9641 8.26601 20.182 7.48399 20.182 6.52059V6.17151H19.4839V6.52059C19.4839 7.48399 18.7018 8.26601 17.7384 8.26601H17.3894V8.96418H17.7384C18.7018 8.96418 19.4839 9.74621 19.4839 10.7096Z" fill="#272525"/>
</svg>
